<?xml version="1.0" standalone="no"?>
<!DOCTYPE svg PUBLIC "-//W3C//DTD SVG 20010904//EN"
 "http://www.w3.org/TR/2001/REC-SVG-20010904/DTD/svg10.dtd">
<svg version="1.0" xmlns="http://www.w3.org/2000/svg"
 width="110.000000pt" height="110.000000pt" viewBox="0 0 110.000000 110.000000"
 preserveAspectRatio="xMidYMid meet">

<g transform="translate(0.000000,110.000000) scale(0.100000,-0.100000)"
fill="#000000" stroke="none">
<path d="M0 1065 c0 -28 4 -35 20 -35 11 0 20 5 20 10 0 6 32 10 75 10 73 0
75 1 75 25 0 25 0 25 -95 25 l-95 0 0 -35z"/>
<path d="M200 1075 c0 -24 3 -25 60 -25 33 0 77 7 97 15 21 8 58 19 83 24 35
7 14 9 -97 10 l-143 1 0 -25z"/>
<path d="M660 1089 c25 -5 62 -16 83 -24 20 -8 64 -15 97 -15 57 0 60 1 60 25
l0 25 -142 -1 c-112 -1 -133 -3 -98 -10z"/>
<path d="M515 953 c-61 -15 -124 -101 -125 -169 0 -64 62 -71 68 -8 5 49 24
84 53 99 72 38 149 -10 149 -93 0 -34 20 -55 44 -46 36 14 27 104 -16 159 -37
48 -112 73 -173 58z"/>
<path d="M1 768 l1 -153 15 60 c8 33 17 102 20 153 4 88 3 92 -16 92 -20 0
-21 -5 -20 -152z"/>
<path d="M1071 803 c0 -38 6 -95 14 -128 l13 -60 1 128 c1 107 -1 127 -14 127
-12 0 -15 -14 -14 -67z"/>
<path d="M260 709 c-122 -49 -138 -229 -26 -298 67 -42 147 -32 239 31 l59 40
-25 25 -25 26 -33 -26 c-60 -44 -99 -60 -137 -53 -124 20 -114 195 11 196 52
0 84 -18 217 -125 144 -116 187 -140 257 -139 165 3 225 208 90 308 -22 16
-43 21 -96 21 -65 0 -72 -3 -135 -45 -36 -25 -66 -48 -66 -51 0 -4 12 -14 26
-24 25 -16 28 -16 53 2 100 75 194 70 221 -12 23 -71 -21 -130 -99 -130 -51 0
-90 24 -256 160 -44 36 -98 74 -121 85 -43 21 -113 25 -154 9z"/>
<path d="M1 333 c-1 -148 0 -153 20 -153 19 0 20 4 16 93 -3 50 -12 119 -20
152 l-15 60 -1 -152z"/>
<path d="M1082 415 c-17 -93 -16 -185 3 -185 13 0 15 21 15 125 0 69 -1 125
-3 125 -1 0 -8 -29 -15 -65z"/>
<path d="M400 355 c-18 -22 -7 -89 23 -134 34 -51 85 -74 152 -69 81 7 138 62
151 145 7 49 -8 76 -40 71 -17 -2 -22 -13 -28 -51 -8 -55 -21 -75 -63 -93 -66
-27 -125 14 -135 94 -4 38 -9 48 -26 50 -11 2 -27 -4 -34 -13z"/>
<path d="M150 30 l0 -30 168 1 c157 1 164 1 112 13 -30 7 -72 20 -94 29 -24
11 -65 17 -112 17 l-74 0 0 -30z"/>
<path d="M760 42 c-19 -8 -60 -21 -90 -28 -53 -12 -50 -12 88 -13 l142 -1 0
30 c0 30 -1 30 -52 29 -29 0 -69 -8 -88 -17z"/>
</g>
</svg>
